<?xml version="1.0" standalone="no"?><!DOCTYPE svg PUBLIC "-//W3C//DTD SVG 1.1//EN" "http://www.w3.org/Graphics/SVG/1.1/DTD/svg11.dtd"><svg t="1613785352864" class="icon" viewBox="0 0 1024 1024" version="1.1" xmlns="http://www.w3.org/2000/svg" p-id="4104" xmlns:xlink="http://www.w3.org/1999/xlink" width="200" height="200"><defs><style type="text/css"></style></defs><path d="M0 512C0 229.226667 229.226667 0 512 0s512 229.226667 512 512-229.226667 512-512 512S0 794.773333 0 512z" fill="#FFFFFF" p-id="4105"></path><path d="M512 375.914667c41.664 0 69.76 18.005333 85.781333 33.045333l62.613334-61.141333C621.952 312.064 571.904 290.133333 512 290.133333c-86.784 0-161.706667 49.792-198.208 122.282667l71.744 55.701333c18.005333-53.482667 67.797333-92.202667 126.464-92.202666z" fill="#EA4335" p-id="4106"></path><path d="M724.992 516.928c0-18.24-1.472-31.552-4.693333-45.354667H512v82.325334h122.282667c-2.474667 20.48-15.786667 51.285333-45.376 72l70.016 54.229333c41.92-38.698667 66.069333-95.658667 66.069333-163.2z" fill="#4285F4" p-id="4107"></path><path d="M385.792 555.882667A136.384 136.384 0 0 1 378.389333 512c0-15.274667 2.709333-30.08 7.146667-43.882667l-71.744-55.701333A221.909333 221.909333 0 0 0 290.133333 512c0 35.754667 8.618667 69.525333 23.658667 99.584l72-55.701333z" fill="#FBBC05" p-id="4108"></path><path d="M512 733.866667c59.904 0 110.186667-19.712 146.922667-53.738667l-70.016-54.229333c-18.730667 13.056-43.882667 22.186667-76.906667 22.186666-58.666667 0-108.458667-38.72-126.208-92.202666l-71.744 55.701333C350.528 684.074667 425.216 733.866667 512 733.866667z" fill="#34A853" p-id="4109"></path></svg>